<svg width="22"  viewBox="0 0 22 22" fill="none" xmlns="http://www.w3.org/2000/svg">
<path d="M0.292893 20.2929C-0.0976311 20.6834 -0.0976311 21.3166 0.292893 21.7071C0.683417 22.0976 1.31658 22.0976 1.70711 21.7071L0.292893 20.2929ZM22 1C22 0.447715 21.5523 0 21 0H12C11.4477 0 11 0.447715 11 1C11 1.55228 11.4477 2 12 2H20V10C20 10.5523 20.4477 11 21 11C21.5523 11 22 10.5523 22 10V1ZM1.70711 21.7071L21.7071 1.70711L20.2929 0.292893L0.292893 20.2929L1.70711 21.7071Z" fill="currentColor"/>
</svg>
