<svg width="35" height="37" viewBox="0 0 35 37" fill="none" xmlns="http://www.w3.org/2000/svg">
<path d="M17.22 9.9574L17.2492 10.957L17.2494 10.957L17.22 9.9574ZM8.5 18.9874H9.50001L9.49999 18.9832L8.5 18.9874ZM17.11 35.9374L17.2058 34.942L17.2057 34.942L17.11 35.9374ZM23.79 25.3874L24.4877 26.1038L24.4885 26.103L23.79 25.3874ZM18.5 1.9574C18.5 1.40511 18.0523 0.957397 17.5 0.957397C16.9477 0.957397 16.5 1.40511 16.5 1.9574H18.5ZM16.5 4.9574C16.5 5.50968 16.9477 5.9574 17.5 5.9574C18.0523 5.9574 18.5 5.50968 18.5 4.9574H16.5ZM6.53711 6.08029C6.14658 5.68977 5.51342 5.68977 5.12289 6.08029C4.73237 6.47081 4.73237 7.10398 5.12289 7.4945L6.53711 6.08029ZM7.24289 9.6145C7.63342 10.005 8.26658 10.005 8.65711 9.6145C9.04763 9.22398 9.04763 8.59081 8.65711 8.20029L7.24289 9.6145ZM1 17.4574C0.447715 17.4574 0 17.9051 0 18.4574C0 19.0097 0.447715 19.4574 1 19.4574V17.4574ZM4 19.4574C4.55228 19.4574 5 19.0097 5 18.4574C5 17.9051 4.55228 17.4574 4 17.4574V19.4574ZM34 19.4574C34.5523 19.4574 35 19.0097 35 18.4574C35 17.9051 34.5523 17.4574 34 17.4574V19.4574ZM31 17.4574C30.4477 17.4574 30 17.9051 30 18.4574C30 19.0097 30.4477 19.4574 31 19.4574V17.4574ZM29.8771 7.4945C30.2676 7.10398 30.2676 6.47082 29.8771 6.08029C29.4866 5.68977 28.8534 5.68977 28.4629 6.08029L29.8771 7.4945ZM26.3429 8.20029C25.9524 8.59081 25.9524 9.22398 26.3429 9.6145C26.7334 10.005 27.3666 10.005 27.7571 9.6145L26.3429 8.20029ZM27.5 18.9574C27.5 13.3351 22.8556 8.79121 17.1906 8.95783L17.2494 10.957C21.7844 10.8236 25.5 14.4597 25.5 18.9574H27.5ZM17.1908 8.95782C11.8463 9.1137 7.47776 13.6512 7.50001 18.9916L9.49999 18.9832C9.48224 14.7236 12.9937 11.0811 17.2492 10.957L17.1908 8.95782ZM7.5 18.9874C7.5 21.6836 8.59283 24.1189 10.3218 25.9033L11.7582 24.5115C10.3672 23.0759 9.5 21.1312 9.5 18.9874H7.5ZM10.3218 25.9033C11.7261 27.3525 12.5 29.091 12.5 30.9774H14.5C14.5 28.5038 13.4739 26.2823 11.7582 24.5115L10.3218 25.9033ZM12.5 30.9774V31.7874H14.5V30.9774H12.5ZM12.5 31.7874C12.5 34.3378 14.3687 36.6784 17.0143 36.9328L17.2057 34.942C15.6913 34.7964 14.5 33.417 14.5 31.7874H12.5ZM17.0142 36.9328C19.9993 37.2201 22.5 34.8798 22.5 31.9574H20.5C20.5 33.715 19.0007 35.1147 17.2058 34.942L17.0142 36.9328ZM22.5 31.9574V31.1174H20.5V31.9574H22.5ZM22.5 31.1174C22.5 29.2149 23.1793 27.3779 24.4877 26.1038L23.0923 24.671C21.3407 26.3768 20.5 28.7599 20.5 31.1174H22.5ZM24.4885 26.103C26.3431 24.2928 27.5 21.758 27.5 18.9574H25.5C25.5 21.1968 24.5769 23.222 23.0915 24.6718L24.4885 26.103ZM16.5 1.9574V4.9574H18.5V1.9574H16.5ZM5.12289 7.4945L7.24289 9.6145L8.65711 8.20029L6.53711 6.08029L5.12289 7.4945ZM1 19.4574H4V17.4574H1V19.4574ZM34 17.4574H31V19.4574H34V17.4574ZM28.4629 6.08029L26.3429 8.20029L27.7571 9.6145L29.8771 7.4945L28.4629 6.08029ZM13.5 28.9574H21.5V26.9574H13.5V28.9574Z" fill="#F9F1F1"/>
</svg>
