<svg width="31" height="31" viewBox="0 0 31 31" fill="none" xmlns="http://www.w3.org/2000/svg">
<path d="M29.1621 5.13028C27.9919 6.3032 26.0916 6.3032 24.9214 5.13028C23.7512 3.95736 23.7512 2.05261 24.9214 0.879691C26.0916 -0.29323 27.9919 -0.29323 29.1621 0.879691C30.3322 2.05261 30.3322 3.95736 29.1621 5.13028ZM5.1183 24.9797C3.94812 23.8068 2.04782 23.8068 0.877637 24.9797C-0.292546 26.1526 -0.292546 28.0574 0.877637 29.2303C2.04782 30.4032 3.94812 30.4032 5.1183 29.2303C6.28848 28.0574 6.28848 26.1526 5.1183 24.9797ZM8.85889 18.3933C8.3188 17.4008 8.01876 16.268 8.01876 15.055C8.01876 11.1753 11.1492 8.03752 15.0199 8.03752C16.23 8.03752 17.3602 8.33827 18.3504 8.87962L21.9709 5.25058C20.0106 3.84708 17.6203 3.01501 15.0199 3.01501C8.38881 3.02503 3.01797 8.40845 3.01797 15.055C3.01797 17.6515 3.8481 20.0474 5.24832 22.0224L8.86889 18.3933H8.85889ZM21.1808 11.7167C21.7209 12.7092 22.0209 13.842 22.0209 15.055C22.0209 18.9347 18.8905 22.0725 15.0199 22.0725C13.8097 22.0725 12.6795 21.7717 11.6893 21.2304L8.06876 24.8594C10.0291 26.2629 12.4194 27.095 15.0199 27.095C21.6509 27.095 27.0217 21.7116 27.0217 15.065C27.0217 12.4686 26.1916 10.0726 24.7914 8.09767L21.1708 11.7267L21.1808 11.7167Z" fill="#32B8BB"/>
</svg>
