<svg width="31" height="31" viewBox="0 0 31 31" fill="none" xmlns="http://www.w3.org/2000/svg">
<path d="M29.04 3C29.04 4.10457 28.1446 5 27.04 5C25.9355 5 25.04 4.10457 25.04 3C25.04 1.89543 25.9355 1 27.04 1C28.1446 1 29.04 1.89543 29.04 3Z" stroke="#fff" stroke-width="2"/>
<path d="M5 27.04C5 28.1446 4.10457 29.04 3 29.04C1.89543 29.04 1 28.1446 1 27.04C1 25.9355 1.89543 25.04 3 25.04C4.10457 25.04 5 25.9355 5 27.04Z" stroke="#fff" stroke-width="2"/>
<path d="M8.86002 18.3498C8.32002 17.3598 8.02002 16.2298 8.02002 15.0198C8.02002 11.1498 11.15 8.01977 15.02 8.01977C16.23 8.01977 17.36 8.31977 18.35 8.85977L21.97 5.23977C20.01 3.83977 17.62 3.00977 15.02 3.00977C8.39002 3.01977 3.02002 8.38977 3.02002 15.0198C3.02002 17.6098 3.85002 19.9998 5.25002 21.9698L8.87002 18.3498H8.86002Z" stroke="#fff" stroke-width="2" stroke-linecap="round" stroke-linejoin="round"/>
<path d="M21.1798 11.6901C21.7198 12.6801 22.0198 13.8101 22.0198 15.0201C22.0198 18.8901 18.8898 22.0201 15.0198 22.0201C13.8098 22.0201 12.6798 21.7201 11.6898 21.1801L8.06982 24.8001C10.0298 26.2001 12.4198 27.0301 15.0198 27.0301C21.6498 27.0301 27.0198 21.6601 27.0198 15.0301C27.0198 12.4401 26.1898 10.0501 24.7898 8.08008L21.1698 11.7001L21.1798 11.6901Z" stroke="#fff" stroke-width="2" stroke-linecap="round" stroke-linejoin="round"/>
</svg>
