<svg width="136" viewBox="0 0 84 25" fill="none" xmlns="http://www.w3.org/2000/svg">
<path d="M18.8934 15.6687C20.3112 15.682 21.139 16.8963 20.573 18.0824C20.2079 18.8484 19.4848 19.0413 18.7448 19.1022C16.4199 19.2937 14.088 19.2061 11.7602 19.215C11.224 19.2165 11.098 19.3932 11.0924 19.9172L11.098 24.225C11.1051 24.5858 11.1815 24.7535 11.582 24.7505C14.4148 24.7223 17.2576 24.8708 20.0777 24.6689C23.2134 24.4462 26.2133 22.7495 26.9505 18.9033C27.3609 16.7582 26.8387 14.8003 25.4676 13.1421C25.1591 12.7695 25.2114 12.5825 25.4577 12.2366C27.2844 9.66851 27.3566 6.52445 25.6374 3.87916C24.5704 2.23736 23.0252 1.36895 21.1899 1.00229C19.39 0.641572 17.5732 0.570319 15.7478 0.571804H0.666475C0.134427 0.568835 0 0.818221 0 1.26653C0.0240554 5.8609 0.0212256 10.4449 0.00141532 15.0393C3.02313e-07 15.5321 0.0990523 15.6746 0.590065 15.6701L18.8934 15.6687ZM5.61197 9.7843C5.20728 9.78875 5.07285 9.67742 5.07568 9.24545V6.95197C5.07285 6.52148 5.21577 6.38639 5.65018 6.38788L17.0836 6.38936C18.026 6.39976 18.9981 6.34632 19.9051 6.75157C20.4428 6.99205 20.7003 7.42996 20.7244 8.02523C20.7499 8.64424 20.5489 9.15935 19.9928 9.43249C19.5641 9.64328 19.1084 9.77688 18.6203 9.7754L5.61197 9.7843Z" fill="#030304"/>
<path d="M57.205 0.585167C56.5456 0.577744 56.3475 0.769238 56.3744 1.46396C56.4268 2.87419 56.4169 4.28887 56.3773 5.6991C56.3617 6.23795 56.4989 6.37155 57.0126 6.37007L74.498 6.36265C75.3159 6.36413 76.1409 6.37304 76.9347 6.61204C77.6776 6.83619 78.0554 7.40176 78.0441 8.19297C78.0342 8.88176 77.5714 9.42804 76.8314 9.61953C75.981 9.83923 75.1107 9.79321 74.2476 9.7947L57.106 9.79766C56.5556 9.79618 56.373 9.909 56.3773 10.5236C56.4027 15.0957 56.3999 19.6678 56.3801 24.2399C56.3773 24.7401 56.5145 24.8693 56.973 24.8678H61.4289C61.8902 24.8633 62.0218 24.7105 62.0232 24.225L62.0204 16.3975C62.0204 15.7993 62.1916 15.6449 62.7477 15.6405L76.5258 15.6419C78.2676 15.633 80.0477 15.3035 81.5349 14.159C83.0759 12.9714 83.8584 11.3192 83.9461 9.35233C84.0155 7.79217 84.1159 6.20827 83.5372 4.69858C82.6485 2.37541 80.9024 1.24575 78.6398 0.867211C77.4384 0.653451 69.3643 0.58665 69.3643 0.58665H57.205V0.585167Z" fill="#030304"/>
<path d="M43.6295 24.8678H38.8382C38.4533 24.8678 38.1406 24.5398 38.1406 24.136V9.86599C38.1406 9.46222 38.4533 9.13416 38.8382 9.13416H43.6295C44.0144 9.13416 44.3271 9.46222 44.3271 9.86599V24.136C44.3271 24.5398 44.0158 24.8678 43.6295 24.8678Z" fill="#030304"/>
<path d="M52.2442 6.29434H30.2179C29.8147 6.29434 29.4878 5.95144 29.4878 5.52837V1.31847C29.4878 0.895399 29.8147 0.55249 30.2179 0.55249H52.2456C52.6489 0.55249 52.9757 0.895399 52.9757 1.31847V5.52837C52.9743 5.95144 52.6474 6.29434 52.2442 6.29434Z" fill="#030304"/>
</svg>
