<svg width="32" height="24" viewBox="0 0 32 24" fill="none" xmlns="http://www.w3.org/2000/svg">
<path d="M26.9583 1.98931C24.9386 1.07155 22.7761 0.39033 20.5087 0.00241115C20.4706 0.00241115 20.423 0.0118719 20.4039 0.0497176C20.1277 0.541712 19.8133 1.18509 19.6037 1.68654C17.1649 1.32701 14.7451 1.32701 12.3635 1.68654C12.1444 1.16617 11.8299 0.541712 11.5441 0.0497176C11.525 0.0118719 11.4774 -0.00705028 11.4393 0.00241115C9.17194 0.39033 7.00948 1.07155 4.98983 1.98931C4.97077 1.98931 4.96121 2.00823 4.95168 2.02716C0.845681 8.12031 -0.2785 14.0716 0.274047 19.9376C0.274047 19.966 0.293138 19.9944 0.312191 20.0133C3.01777 21.9908 5.64707 23.1924 8.22881 23.9871C8.26691 23.9966 8.31454 23.9871 8.34312 23.9493C8.95283 23.1261 9.49592 22.2557 9.96273 21.3379C9.99131 21.2812 9.96267 21.2244 9.90551 21.196C9.04811 20.8743 8.21932 20.4769 7.43813 20.0228C7.37145 19.9849 7.37144 19.8998 7.4286 19.8525C7.59055 19.7295 7.76205 19.597 7.924 19.474C7.95258 19.4456 7.99068 19.4456 8.02878 19.4646C13.2113 21.8205 18.832 21.8205 23.9574 19.4646C23.9955 19.4456 24.0336 19.4551 24.0622 19.474C24.2241 19.6065 24.3861 19.7295 24.5576 19.8619C24.6147 19.8998 24.6147 19.9944 24.5576 20.0323C23.7668 20.4864 22.9476 20.8743 22.0806 21.2055C22.0235 21.2244 21.9948 21.2906 22.0234 21.3474C22.4998 22.2651 23.0429 23.1356 23.643 23.9587C23.6716 23.9966 23.7097 24.0061 23.7573 23.9966C26.3486 23.2018 28.9684 22.0002 31.6835 20.0228C31.7026 20.0039 31.7216 19.9755 31.7216 19.9471C32.379 13.1633 30.6165 7.25933 27.0345 2.03662C27.0345 2.01769 27.0155 2.00823 26.9964 1.99877L26.9583 1.98931ZM10.7248 16.3612C9.16242 16.3612 7.87632 14.942 7.87632 13.1916C7.87632 11.4413 9.13384 10.0221 10.7248 10.0221C12.3157 10.0221 13.6018 11.4602 13.5733 13.1916C13.5733 14.942 12.3157 16.3612 10.7248 16.3612ZM21.2518 16.3612C19.6894 16.3612 18.4034 14.942 18.4034 13.1916C18.4034 11.4413 19.6609 10.0221 21.2518 10.0221C22.8428 10.0221 24.1289 11.4602 24.1003 13.1916C24.1003 14.942 22.8523 16.3612 21.2518 16.3612Z" fill="currentColor"/>
</svg>
