<svg width="24" height="24" viewBox="0 0 24 24" fill="none" xmlns="http://www.w3.org/2000/svg">
<path fill-rule="evenodd" clip-rule="evenodd" d="M11.9913 0C9.14208 0 6.3867 1.04144 4.22273 2.93091C2.05155 4.82038 0.616109 7.4463 0.154463 10.3251C-0.29997 13.204 0.255399 16.1646 1.7269 18.6641C3.19839 21.1635 5.49227 23.0456 8.19723 23.968C8.79592 24.0796 9.01946 23.7002 9.01946 23.3803C9.01946 23.0605 9.0051 22.1157 9.0051 21.0892C5.66538 21.833 4.96563 19.6386 4.96563 19.6386C4.42464 18.2103 3.6312 17.8384 3.6312 17.8384C2.542 17.0796 3.71053 17.0945 3.71053 17.0945C4.91514 17.1838 5.54994 18.3665 5.54994 18.3665C6.6175 20.2486 8.35586 19.7055 9.04112 19.3857C9.14931 18.5897 9.45953 18.0467 9.80576 17.7417C7.13687 17.4292 4.33808 16.3804 4.33808 11.6641C4.32365 10.4442 4.76372 9.26138 5.5716 8.36128C5.44898 8.04884 5.03776 6.79912 5.68695 5.10306C5.68695 5.10306 6.69685 4.77575 8.98344 6.36022C10.9527 5.80975 13.0228 5.80975 14.992 6.36022C17.2858 4.76831 18.2885 5.10306 18.2885 5.10306C18.9449 6.79912 18.5337 8.04884 18.4111 8.36128C19.2262 9.26138 19.6662 10.4442 19.6517 11.6641C19.6517 16.3878 16.8458 17.4292 14.1769 17.7342C14.6025 18.1136 14.992 18.8649 14.992 20.0105C14.992 21.6545 14.9776 22.9786 14.9776 23.3878C14.9776 23.7151 15.194 24.1019 15.7999 23.9754C18.5049 23.053 20.7914 21.171 22.2701 18.6715C23.7416 16.1721 24.3043 13.2188 23.8427 10.3326C23.3882 7.44629 21.9456 4.82782 19.7744 2.93835C17.6032 1.04888 14.8477 0.00743903 11.9985 0.00743903L11.9913 0Z" fill="#fff"/>
</svg>
