<svg width="93" height="54" viewBox="0 0 93 54" fill="none" xmlns="http://www.w3.org/2000/svg">
<path d="M46.22 18L46.2492 18.9996L46.2494 18.9996L46.22 18ZM37.5 27.03H38.5L38.5 27.0258L37.5 27.03ZM46.11 43.98L46.2058 42.9846L46.2057 42.9846L46.11 43.98ZM52.79 33.43L53.4877 34.1464L53.4885 34.1456L52.79 33.43ZM47.5 10C47.5 9.44772 47.0523 9 46.5 9C45.9477 9 45.5 9.44772 45.5 10H47.5ZM45.5 13C45.5 13.5523 45.9477 14 46.5 14C47.0523 14 47.5 13.5523 47.5 13H45.5ZM35.5371 14.1229C35.1466 13.7324 34.5134 13.7324 34.1229 14.1229C33.7324 14.5134 33.7324 15.1466 34.1229 15.5371L35.5371 14.1229ZM36.2429 17.6571C36.6334 18.0476 37.2666 18.0476 37.6571 17.6571C38.0476 17.2666 38.0476 16.6334 37.6571 16.2429L36.2429 17.6571ZM30 25.5C29.4477 25.5 29 25.9477 29 26.5C29 27.0523 29.4477 27.5 30 27.5V25.5ZM33 27.5C33.5523 27.5 34 27.0523 34 26.5C34 25.9477 33.5523 25.5 33 25.5V27.5ZM63 27.5C63.5523 27.5 64 27.0523 64 26.5C64 25.9477 63.5523 25.5 63 25.5V27.5ZM60 25.5C59.4477 25.5 59 25.9477 59 26.5C59 27.0523 59.4477 27.5 60 27.5V25.5ZM58.8771 15.5371C59.2676 15.1466 59.2676 14.5134 58.8771 14.1229C58.4866 13.7324 57.8534 13.7324 57.4629 14.1229L58.8771 15.5371ZM55.3429 16.2429C54.9524 16.6334 54.9524 17.2666 55.3429 17.6571C55.7334 18.0476 56.3666 18.0476 56.7571 17.6571L55.3429 16.2429ZM56.5 27C56.5 21.3777 51.8556 16.8338 46.1906 17.0004L46.2494 18.9996C50.7844 18.8662 54.5 22.5023 54.5 27H56.5ZM46.1908 17.0004C40.8463 17.1563 36.4778 21.6938 36.5 27.0342L38.5 27.0258C38.4822 22.7662 41.9937 19.1237 46.2492 18.9996L46.1908 17.0004ZM36.5 27.03C36.5 29.7262 37.5928 32.1615 39.3218 33.9459L40.7582 32.5541C39.3672 31.1185 38.5 29.1738 38.5 27.03H36.5ZM39.3218 33.9459C40.7261 35.3951 41.5 37.1336 41.5 39.02H43.5C43.5 36.5464 42.4739 34.3249 40.7582 32.5541L39.3218 33.9459ZM41.5 39.02V39.83H43.5V39.02H41.5ZM41.5 39.83C41.5 42.3804 43.3687 44.721 46.0143 44.9754L46.2057 42.9846C44.6913 42.839 43.5 41.4596 43.5 39.83H41.5ZM46.0142 44.9754C48.9993 45.2627 51.5 42.9224 51.5 40H49.5C49.5 41.7576 48.0007 43.1573 46.2058 42.9846L46.0142 44.9754ZM51.5 40V39.16H49.5V40H51.5ZM51.5 39.16C51.5 37.2575 52.1793 35.4206 53.4877 34.1464L52.0923 32.7136C50.3407 34.4194 49.5 36.8025 49.5 39.16H51.5ZM53.4885 34.1456C55.3431 32.3354 56.5 29.8006 56.5 27H54.5C54.5 29.2394 53.5769 31.2646 52.0915 32.7144L53.4885 34.1456ZM45.5 10V13H47.5V10H45.5ZM34.1229 15.5371L36.2429 17.6571L37.6571 16.2429L35.5371 14.1229L34.1229 15.5371ZM30 27.5H33V25.5H30V27.5ZM63 25.5H60V27.5H63V25.5ZM57.4629 14.1229L55.3429 16.2429L56.7571 17.6571L58.8771 15.5371L57.4629 14.1229ZM42.5 37H50.5V35H42.5V37Z" fill="#161D1C"/>
<rect x="1" y="1" width="91" height="51.9992" rx="25.9996" stroke="#32B8BB" stroke-width="2"/>
</svg>
