<svg width="111" height="59" viewBox="0 0 111 59" fill="none" xmlns="http://www.w3.org/2000/svg">
<path d="M27.7028 2.15763V19.4252C27.7028 20.6173 26.7359 21.5828 25.5421 21.5828C24.3482 21.5828 23.3814 20.6173 23.3814 19.4252V2.15763C23.3792 0.965484 24.346 0 25.5399 0C26.7337 0 27.7028 0.965484 27.7028 2.15763Z" fill="#02AED3"/>
<path d="M41.8019 0H55.7788C56.9727 0 57.9395 0.965484 57.9395 2.15763C57.9395 3.34977 56.9727 4.31525 55.7788 4.31525H42.8124C41.6186 4.31525 40.6517 5.28074 40.6517 6.47288V15.1056C40.6517 16.2977 41.6186 17.2632 42.8124 17.2632H55.781C56.9748 17.2632 57.9417 18.2287 57.9417 19.4208C57.9417 20.613 56.9748 21.5785 55.781 21.5785H41.7932C38.7747 21.5785 36.3281 19.1353 36.3281 16.1212V5.46381C36.3281 2.44749 38.7791 0 41.8019 0Z" fill="#02AED3"/>
<path d="M65.9167 2.15763C65.9167 0.965484 66.8835 0 68.0774 0H85.3695C86.5634 0 87.5303 0.965484 87.5303 2.15763C87.5303 3.34977 86.5634 4.31525 85.3695 4.31525H68.0774C66.8857 4.31743 65.9167 3.34977 65.9167 2.15763ZM65.9167 10.7925C65.9167 9.60035 66.8835 8.63487 68.0774 8.63487H85.3695C86.5634 8.63487 87.5303 9.60035 87.5303 10.7925C87.5303 11.9846 86.5634 12.9501 85.3695 12.9501H68.0774C66.8857 12.9501 65.9167 11.9846 65.9167 10.7925ZM65.9167 19.4252C65.9167 18.233 66.8835 17.2676 68.0774 17.2676H85.3695C86.5634 17.2676 87.5303 18.233 87.5303 19.4252C87.5303 20.6173 86.5634 21.5828 85.3695 21.5828H68.0774C66.8857 21.5828 65.9167 20.6173 65.9167 19.4252Z" fill="#02AED3"/>
<g clip-path="url(#clip0_202_53)">
<path d="M19.4272 40.8874H6.47754C5.2836 40.8874 4.31656 41.8545 4.31656 43.0484C4.31656 44.2423 5.2836 45.2094 6.47754 45.2094H16.175C19.1625 45.2094 21.5828 47.6297 21.5828 50.6172V52.8431C21.5828 55.7766 19.2057 58.1537 16.2722 58.1537H2.16098C0.96704 58.1537 0 57.1866 0 55.9927C0 54.7987 0.96704 53.8317 2.16098 53.8317H15.1107C16.3046 53.8317 17.2717 52.8647 17.2717 51.6707C17.2717 50.4768 16.3046 49.5097 15.1107 49.5097H5.39165C2.4149 49.5205 0 47.1057 0 44.1289V42.0003C0 39.002 2.43111 36.5709 5.42947 36.5709H19.4272C20.6212 36.5709 21.5882 37.5379 21.5882 38.7318C21.5828 39.9204 20.6158 40.8874 19.4272 40.8874Z" fill="black"/>
<path d="M51.307 41.9733V55.9981C51.307 57.192 50.34 58.1591 49.146 58.1591C47.9521 58.1591 46.985 57.192 46.985 55.9981V43.0484C46.985 41.8545 46.018 40.8874 44.824 40.8874H36.1963C35.0024 40.8874 34.0353 41.8545 34.0353 43.0484V55.9981C34.0353 57.192 33.0683 58.1591 31.8744 58.1591C30.6804 58.1591 29.7134 57.192 29.7134 55.9981V42.0219C29.7242 39.0128 32.1661 36.5709 35.1753 36.5709H45.9045C48.8867 36.5709 51.307 38.9912 51.307 41.9733Z" fill="black"/>
<path d="M81.0262 42.049V52.6972C81.0262 55.7118 78.5843 58.1537 75.5697 58.1537H64.9377C61.9015 58.1537 59.438 55.6902 59.438 52.654V42.0598C59.438 39.029 61.8961 36.5709 64.9269 36.5709H75.5427C78.5735 36.5709 81.0262 39.0236 81.0262 42.049ZM63.76 43.0484V51.6815C63.76 52.8755 64.727 53.8425 65.9209 53.8425H74.5541C75.748 53.8425 76.715 52.8755 76.715 51.6815V43.0484C76.715 41.8545 75.748 40.8874 74.5541 40.8874H65.9209C64.727 40.8874 63.76 41.8545 63.76 43.0484Z" fill="black"/>
<path d="M93.6734 38.7318V51.6815C93.6734 52.8755 94.6404 53.8425 95.8344 53.8425C97.0283 53.8425 97.9953 52.8755 97.9953 51.6815V38.7318C97.9953 37.5379 98.9624 36.5709 100.156 36.5709C101.35 36.5709 102.317 37.5379 102.317 38.7318V51.6815C102.317 52.8755 103.284 53.8425 104.478 53.8425C105.672 53.8425 106.639 52.8755 106.639 51.6815V38.7318C106.639 37.5379 107.606 36.5709 108.8 36.5709C109.994 36.5709 110.961 37.5379 110.961 38.7318V52.708C110.961 55.7172 108.519 58.1591 105.51 58.1591H94.8133C91.8095 58.1591 89.3784 55.7226 89.3784 52.7242V38.7318C89.3784 37.5379 90.3455 36.5709 91.5394 36.5709C92.7117 36.5709 93.6734 37.5379 93.6734 38.7318Z" fill="black"/>
<path d="M72.3549 53.9074C72.3657 53.8101 72.4359 53.7669 72.5116 53.7183C72.5224 53.7129 72.5386 53.7021 72.5494 53.6967C72.5764 53.6913 72.571 53.6751 72.5656 53.6534C72.5386 53.594 72.5008 53.5454 72.4576 53.5022C72.3549 53.3887 72.2307 53.3023 72.1064 53.2212C71.8471 53.0592 71.7012 52.8161 71.6472 52.5189C71.6418 52.4973 71.6364 52.4865 71.6094 52.4865C71.4419 52.4811 71.2798 52.4649 71.1123 52.4595C71.0475 52.4541 70.9827 52.4541 70.9124 52.4487C70.907 52.4487 70.907 52.4433 70.907 52.4379C71.0421 52.4001 71.1718 52.3623 71.3068 52.3244C71.3122 52.3244 71.323 52.319 71.3284 52.319C71.2582 52.2866 71.188 52.2704 71.1123 52.265C70.9341 52.2488 70.7558 52.265 70.5775 52.2866C70.2371 52.3352 69.9076 52.4109 69.578 52.4973C68.9892 52.654 68.4057 52.8431 67.8331 53.043C67.4711 53.1672 67.1145 53.3023 66.758 53.4373C66.7526 53.4373 66.7472 53.4427 66.7418 53.4373C66.7418 53.4049 66.7418 53.3725 66.7418 53.3347C66.5743 53.4265 66.4068 53.4752 66.2177 53.4752C66.1367 53.4752 66.061 53.4644 65.9746 53.4427C66.1259 53.3293 66.2717 53.2158 66.4284 53.097C66.315 53.097 66.2123 53.097 66.1097 53.097C66.1097 53.0862 66.1205 53.0862 66.1259 53.0808C66.2123 53.0376 66.2988 52.9943 66.3852 52.9511C66.4824 52.9025 66.5743 52.8485 66.6715 52.7999C66.731 52.7728 66.785 52.7458 66.8444 52.7134C66.9416 52.6594 67.0335 52.6108 67.1307 52.5621C67.2388 52.5081 67.3522 52.4487 67.4603 52.3947C67.5629 52.3406 67.6656 52.2866 67.7682 52.2326C67.8655 52.1786 67.9681 52.13 68.0654 52.0813C68.1734 52.0273 68.2815 51.9679 68.3895 51.9084C68.4867 51.8598 68.584 51.8112 68.6812 51.7626C68.8379 51.6815 68.9946 51.6005 69.1513 51.5195C69.2107 51.4871 69.2701 51.46 69.3241 51.4222C69.0918 51.4222 68.8595 51.4222 68.6218 51.4222V51.4168C68.6596 51.3952 68.692 51.3736 68.7299 51.3466C68.8325 51.2818 68.9298 51.2169 69.0324 51.1521C69.1729 51.0657 69.3133 50.9738 69.4538 50.8874C69.5564 50.828 69.6537 50.7577 69.7509 50.6929C69.8536 50.6281 69.9562 50.5632 70.0535 50.4984C70.1453 50.439 70.2317 50.385 70.3236 50.3255C70.4478 50.2499 70.5667 50.1743 70.691 50.0932C70.7828 50.0338 70.8746 49.9744 70.9665 49.9149C71.0853 49.8393 71.2042 49.7637 71.3284 49.688C71.4311 49.6286 71.5283 49.5584 71.631 49.499C71.7282 49.4395 71.8309 49.3747 71.9281 49.3153C71.9983 49.2721 72.0686 49.2288 72.1388 49.1802C72.1442 49.1748 72.1496 49.1748 72.1604 49.1694C72.1658 49.1586 72.1766 49.1532 72.1874 49.1478C72.3225 49.0668 72.463 48.9911 72.6034 48.9209C72.7709 48.8399 72.9438 48.7642 73.1167 48.6886C73.2031 48.6508 73.2841 48.6184 73.3652 48.5697C73.403 48.5481 73.4354 48.5211 73.4678 48.4941C73.5921 48.3806 73.7217 48.2726 73.846 48.1645C73.9702 48.0565 74.0999 47.9485 74.235 47.8458C74.3646 47.7486 74.4997 47.6621 74.6455 47.5919C74.7428 47.5433 74.8454 47.5054 74.9535 47.4946C75.094 47.4784 75.229 47.4946 75.3641 47.5487C75.5261 47.6135 75.6666 47.7053 75.8017 47.8134C75.8827 47.8782 75.9692 47.943 76.0502 48.0079C76.1636 48.0997 76.2771 48.1916 76.3905 48.2888C76.4013 48.2996 76.4122 48.3104 76.4176 48.3212V48.3266C76.3851 48.3482 76.3419 48.359 76.3041 48.3752C76.115 48.4455 75.9313 48.5265 75.7477 48.6184C75.699 48.6454 75.6558 48.6724 75.6126 48.7156C75.5099 48.8128 75.4181 48.9209 75.3479 49.0451C75.3046 49.1154 75.2668 49.1964 75.2398 49.2721C75.1372 49.5584 75.0183 49.8447 74.9103 50.1256C74.8725 50.2229 74.84 50.3201 74.7968 50.4174C74.7482 50.52 74.6888 50.6119 74.6185 50.6983C74.4889 50.855 74.3322 50.9792 74.1647 51.0927C73.9919 51.2115 73.8082 51.3142 73.6245 51.4114C73.4462 51.5033 73.2625 51.5951 73.0842 51.6869C72.933 51.7626 72.7871 51.8436 72.6466 51.9355C72.5764 51.9841 72.5116 52.0381 72.4522 52.1029C72.3873 52.1786 72.3549 52.265 72.3333 52.3569C72.2847 52.6108 72.3441 52.8377 72.49 53.0484C72.5494 53.1348 72.6196 53.2212 72.6953 53.2969C72.8033 53.4049 72.9276 53.4968 73.0626 53.5724C73.1653 53.6318 73.2787 53.6751 73.3922 53.7183C73.4678 53.7453 73.5326 53.7885 73.5759 53.8587C73.5813 53.8695 73.5921 53.8803 73.5867 53.8966C73.5813 53.8966 73.5813 53.8966 73.5759 53.8966C73.457 53.8695 73.3382 53.8371 73.2193 53.8209C73.1599 53.8155 73.095 53.8101 73.0356 53.8047C72.8898 53.7993 72.7439 53.8155 72.598 53.8371C72.5386 53.8479 72.4738 53.8641 72.4143 53.8803C72.3927 53.8857 72.3765 53.8857 72.3549 53.8912C72.3657 53.9074 72.3603 53.9074 72.3549 53.9074Z" fill="black"/>
<path d="M70.9067 52.4433C70.9067 52.4487 70.9121 52.4487 70.9121 52.454C70.9014 52.454 70.896 52.454 70.8799 52.454C70.896 52.4433 70.9014 52.4433 70.9067 52.4433Z" fill="black"/>
</g>
<defs>
<clipPath id="clip0_202_53">
<rect width="110.945" height="21.5828" fill="white" transform="translate(0 36.5709)"/>
</clipPath>
</defs>
</svg>
