<svg width="30" height="24" viewBox="0 0 30 24" fill="none" xmlns="http://www.w3.org/2000/svg">
<path d="M9.18594 23.9911C20.1758 23.9911 26.183 14.7535 26.183 6.75056C26.183 6.49297 26.183 6.2265 26.1655 5.96891C27.3389 5.10733 28.346 4.05033 29.1429 2.83346C28.057 3.32198 26.9011 3.64175 25.7101 3.78386C26.9536 3.02887 27.8906 1.83864 28.3372 0.435233C27.1638 1.13694 25.8853 1.63434 24.5455 1.9097C23.6436 0.941524 22.4526 0.293116 21.1566 0.0799409C19.8606 -0.133235 18.5296 0.0799402 17.3649 0.719467C16.209 1.35011 15.2808 2.34493 14.7379 3.56181C14.1949 4.77868 14.0635 6.13768 14.3525 7.43449C11.9794 7.31014 9.65004 6.68838 7.53088 5.59585C5.41172 4.50333 3.53784 2.97557 2.04042 1.10141C1.27857 2.43375 1.04213 4.0148 1.38365 5.51591C1.72517 7.01702 2.61836 8.33161 3.8881 9.19319C2.94236 9.16654 2.01406 8.90007 1.18215 8.43819V8.50925C1.18215 9.91266 1.65506 11.2628 2.53075 12.3464C3.40643 13.4301 4.62368 14.1762 5.97224 14.4515C5.09655 14.6913 4.16826 14.7269 3.27506 14.5581C3.66036 15.7661 4.39598 16.8142 5.40302 17.5692C6.4013 18.3242 7.6097 18.7417 8.85317 18.7683C6.73401 20.456 4.12449 21.3708 1.42737 21.362C0.945745 21.362 0.472871 21.3353 0 21.2731C2.73214 23.0496 5.91095 24 9.15975 24L9.18594 23.9911Z" fill="currentColor"/>
</svg>
