<svg width="91" viewBox="0 0 91 51" fill="none" xmlns="http://www.w3.org/2000/svg">
<path d="M59.04 13C59.04 14.1046 58.1445 15 57.04 15C55.9354 15 55.04 14.1046 55.04 13C55.04 11.8954 55.9354 11 57.04 11C58.1445 11 59.04 11.8954 59.04 13Z" stroke="#161D1C" stroke-width="2"/>
<path d="M35 37.04C35 38.1446 34.1046 39.04 33 39.04C31.8954 39.04 31 38.1446 31 37.04C31 35.9355 31.8954 35.04 33 35.04C34.1046 35.04 35 35.9355 35 37.04Z" stroke="#161D1C" stroke-width="2"/>
<path d="M38.86 28.3498C38.32 27.3598 38.02 26.2298 38.02 25.0198C38.02 21.1498 41.15 18.0198 45.02 18.0198C46.23 18.0198 47.36 18.3198 48.35 18.8598L51.97 15.2398C50.01 13.8398 47.62 13.0098 45.02 13.0098C38.39 13.0198 33.02 18.3898 33.02 25.0198C33.02 27.6098 33.85 29.9998 35.25 31.9698L38.87 28.3498H38.86Z" stroke="#161D1C" stroke-width="2" stroke-linecap="round" stroke-linejoin="round"/>
<path d="M51.18 21.6901C51.72 22.6801 52.02 23.8101 52.02 25.0201C52.02 28.8901 48.89 32.0201 45.02 32.0201C43.81 32.0201 42.68 31.7201 41.69 31.1801L38.07 34.8001C40.03 36.2001 42.42 37.0301 45.02 37.0301C51.65 37.0301 57.02 31.6601 57.02 25.0301C57.02 22.4401 56.19 20.0501 54.79 18.0801L51.17 21.7001L51.18 21.6901Z" stroke="#161D1C" stroke-width="2" stroke-linecap="round" stroke-linejoin="round"/>
<rect x="1" y="1" width="88.04" height="48.04" rx="24.02" stroke="#32B8BB" stroke-width="2"/>
</svg>
